<?xml version="1.0" encoding="utf-8"?>
<!-- Generator: Adobe Illustrator 16.0.0, SVG Export Plug-In . SVG Version: 6.00 Build 0)  -->
<!DOCTYPE svg PUBLIC "-//W3C//DTD SVG 1.1//EN" "http://www.w3.org/Graphics/SVG/1.1/DTD/svg11.dtd">
<svg version="1.1" id="Capa_1" xmlns="http://www.w3.org/2000/svg" xmlns:xlink="http://www.w3.org/1999/xlink" x="0px" y="0px"
	 width="40px" height="30px" viewBox="0 0 40 30" enable-background="new 0 0 40 30" xml:space="preserve">
<g>
	<polygon fill="#F0D2B8" points="39.602,11.884 0.398,11.884 20,29.803 	"/>
	<polyline fill="#E3C5AB" points="20.031,11.884 20,29.803 0.398,11.884 	"/>
	<path fill="#2F925F" d="M23.102,17.38c0.76-0.598,1.887-0.978,3.146-0.978s2.386,0.38,3.147,0.978
		c0.76-0.598,1.887-0.978,3.146-0.978c0.642,0,1.251,0.099,1.794,0.275l5.268-4.794l-2.917-8.103l-9.359-3.584L20,4.794v11.609
		C21.241,16.412,22.35,16.789,23.102,17.38"/>
	<path fill="#317F53" d="M7.37,16.402c1.259,0,2.386,0.38,3.146,0.978c0.761-0.598,1.888-0.978,3.146-0.978s2.386,0.38,3.146,0.978
		c0.761-0.598,1.888-0.978,3.146-0.978c0.015,0,0.03,0.001,0.045,0.001V4.794l-7.326-4.597l-9.36,3.584l-2.916,8.103l5.244,4.773
		C6.168,16.494,6.753,16.402,7.37,16.402"/>
	<polygon fill="#262223" points="13.687,24.032 26.313,24.032 20,29.803 	"/>
</g>
</svg>
