<?xml version="1.0" encoding="utf-8"?>
<!-- Generator: Adobe Illustrator 17.1.0, SVG Export Plug-In . SVG Version: 6.00 Build 0)  -->
<!DOCTYPE svg PUBLIC "-//W3C//DTD SVG 1.1//EN" "http://www.w3.org/Graphics/SVG/1.1/DTD/svg11.dtd">
<svg version="1.1" xmlns="http://www.w3.org/2000/svg" xmlns:xlink="http://www.w3.org/1999/xlink" x="0px" y="0px"
	 viewBox="0 0 100 100" enable-background="new 0 0 100 100" xml:space="preserve">
<g id="Your_Icon" display="none">
	<g display="inline">
		<g>
			<path fill="#F7F7F7" d="M15.9,57.8h-1.8c-0.2,0-0.4,0.2-0.4,0.4v4.2c0,0.2,0.2,0.4,0.4,0.4h1.8c0.2,0,0.4-0.2,0.4-0.4v-4.2
				C16.3,58,16.1,57.8,15.9,57.8z M21.1,57.8h-1.8c-0.2,0-0.4,0.2-0.4,0.4v4.2c0,0.2,0.2,0.4,0.4,0.4h1.8c0.2,0,0.4-0.2,0.4-0.4
				v-4.2C21.6,58,21.4,57.8,21.1,57.8z M78.4,62.8h1.8c0.2,0,0.4-0.2,0.4-0.4v-4.2c0-0.2-0.2-0.4-0.4-0.4h-1.8
				c-0.2,0-0.4,0.2-0.4,0.4v4.2C78,62.6,78.2,62.8,78.4,62.8z M26.4,57.8h-1.8c-0.2,0-0.4,0.2-0.4,0.4v4.2c0,0.2,0.2,0.4,0.4,0.4
				h1.8c0.2,0,0.4-0.2,0.4-0.4v-4.2C26.8,58,26.6,57.8,26.4,57.8z M83.6,62.8h1.8c0.2,0,0.4-0.2,0.4-0.4v-4.2c0-0.2-0.2-0.4-0.4-0.4
				h-1.8c-0.2,0-0.4,0.2-0.4,0.4v4.2C83.2,62.6,83.4,62.8,83.6,62.8z M62.1,18.1v-0.7c0-0.2-0.2-0.4-0.4-0.4h-8.9v1.5h8.9
				C61.9,18.5,62.1,18.4,62.1,18.1z M73.2,62.8h1.8c0.2,0,0.4-0.2,0.4-0.4v-4.2c0-0.2-0.2-0.4-0.4-0.4h-1.8c-0.2,0-0.4,0.2-0.4,0.4
				v4.2C72.7,62.6,72.9,62.8,73.2,62.8z M61.5,56.3c0.2,0,0.4-0.2,0.4-0.4v-4.2c0-0.2-0.2-0.4-0.4-0.4h-4.8c-0.2,0-0.4,0.2-0.4,0.4
				v4.2c0,0.2,0.2,0.4,0.4,0.4H61.5z M62.1,24.3v-0.7c0-0.2-0.2-0.4-0.4-0.4h-8.9v1.5h8.9C61.9,24.7,62.1,24.6,62.1,24.3z
				 M62.1,21.8V20c0-0.2-0.2-0.4-0.4-0.4h-8.9v2.6h8.9C61.9,22.2,62.1,22,62.1,21.8z M91.6,50c0.2,0,0.4-0.2,0.4-0.4v-1.8
				c0-0.2-0.2-0.4-0.4-0.4H68.9c-0.1-0.3-0.2-0.5-0.3-0.8c0,0,0.1,0,0.1,0c0.1,0,0.2,0,0.3-0.1l1.2-1.2c0.2-0.2,0.2-0.4,0-0.6
				L70,44.5l0,0L54.2,28.7c-0.4-0.4-0.8-0.8-1.3-1v3.6l13.6,13.6c-0.5-0.2-1-0.3-1.5-0.3l-2.8,0l-9-9c-0.1-0.1-0.2-0.2-0.3-0.3v3.9
				l8.2,8.2h4c0.7,0,1.3,0.6,1.3,1.3v25.1c0,0.7-0.6,1.3-1.3,1.3l-13.2,0V17.5c0-0.2-0.2-0.4-0.4-0.4h-1.8c-0.2,0-0.4,0.2-0.4,0.4
				V27c-1.2,0.2-2.5,0.7-3.4,1.7l-0.1,0.1l0,0L29.7,44.7c-0.2,0.2-0.2,0.4,0,0.6l1.2,1.2c0,0,0,0,0.1,0c-0.2,0.3-0.3,0.5-0.4,0.8
				H7.9c-0.2,0-0.4,0.2-0.4,0.4v1.8c0,0.2,0.2,0.4,0.4,0.4h22.5v2.7c-0.1,0-0.2,0-0.3,0H10.6c-1.7,0-3.1,1.4-3.1,3.1v14.7
				c0,1.7,1.4,3.1,3.1,3.1h19.5c0.1,0,0.2,0,0.3,0v0.1c0,2.2,1.8,4.1,4.1,4.1l11.5,0V75l-11.5,0c-0.7,0-1.3-0.6-1.3-1.3v-3.1
				c0,0,0,0,0-0.1V55.8c0,0,0,0,0-0.1v-7.1c0-0.7,0.6-1.3,1.3-1.3h5.1l0.4-0.4l9.1-9.1v43h-6.4c-0.2,0-0.4,0.2-0.4,0.4V83
				c0,0.2,0.2,0.4,0.4,0.4h14.8c0.2,0,0.4-0.2,0.4-0.4v-1.8c0-0.2-0.2-0.4-0.4-0.4h-5.8v-3.1l13.2,0c2.2,0,4.1-1.8,4.1-4.1v-0.1
				c0.1,0,0.2,0,0.4,0h19.5c1.7,0,3.1-1.4,3.1-3.1V55.8c0-1.7-1.4-3.1-3.1-3.1H69.4c-0.1,0-0.2,0-0.4,0l0-2.7L91.6,50L91.6,50z
				 M30.5,70.5c0,0.2-0.2,0.3-0.3,0.3H10.6c-0.2,0-0.4-0.2-0.4-0.4V55.8c0-0.2,0.2-0.4,0.4-0.4h19.5c0.2,0,0.3,0.1,0.3,0.3V70.5z
				 M49.1,34.6c-0.6,0.2-1.2,0.5-1.7,1l-9,9h-4c-0.3,0-0.6,0-0.9,0.1l14-14.1c0.4-0.4,0.9-0.7,1.5-0.8
				C49.1,29.8,49.1,34.6,49.1,34.6z M69.1,55.8c0-0.2,0.2-0.4,0.4-0.4h19.5c0.2,0,0.4,0.2,0.4,0.4v14.7c0,0.2-0.2,0.3-0.4,0.3H69.4
				c-0.2,0-0.4-0.2-0.4-0.3V55.8z M38.2,51.3c-0.2,0-0.4,0.2-0.4,0.4v4.2c0,0.2,0.2,0.4,0.4,0.4H43c0.2,0,0.4-0.2,0.4-0.4v-4.2
				c0-0.2-0.2-0.4-0.4-0.4H38.2z"/>
		</g>
	</g>
</g>
<g id="Capa_2">
	<g>
		<path fill="#F7F7F7" d="M90.8,39.9C90.8,39.9,90.8,39.9,90.8,39.9H9.2c-0.8,0-1.5-0.4-1.7-1c-0.2-0.6,0-1.3,0.7-1.7L49,13.5
			c0.6-0.4,1.4-0.4,2,0l40.5,23.5c0.6,0.2,1.1,0.7,1.1,1.4C92.6,39.3,91.8,39.9,90.8,39.9z M14.8,37h70.2L50,16.5
			C50,16.5,14.8,37,14.8,37z"/>
		<path fill="#F7F7F7" d="M50,36c-4.9,0-8.9-3.3-8.9-7.4s4-7.4,8.9-7.4s8.9,3.3,8.9,7.4C58.8,32.7,54.9,36,50,36z M50,24.2
			c-2.9,0-5.3,2-5.3,4.4s2.4,4.4,5.3,4.4s5.3-2,5.3-4.4S52.9,24.2,50,24.2z"/>
		<path fill="#F7F7F7" d="M90.7,84.4H9.2c-1,0-1.8-0.7-1.8-1.5V77c0-0.8,0.8-1.5,1.8-1.5h81.5c1,0,1.8,0.7,1.8,1.5v5.9
			C92.5,83.7,91.7,84.4,90.7,84.4z M11,81.4h78v-3H11C11,78.4,11,81.4,11,81.4z"/>
		<path fill="#F7F7F7" d="M87.2,78.4H12.7c-1,0-1.8-0.7-1.8-1.5V71c0-0.8,0.8-1.5,1.8-1.5h74.5c1,0,1.8,0.7,1.8,1.5V77
			C89,77.8,88.2,78.4,87.2,78.4z M14.5,75.5h70.9v-3H14.5C14.5,72.5,14.5,75.5,14.5,75.5z"/>
		<path fill="#F7F7F7" d="M30.5,66.6H19.8c-1,0-1.8-0.7-1.8-1.5V50.3c0-0.8,0.8-1.5,1.8-1.5h10.6c1,0,1.8,0.7,1.8,1.5v14.8
			C32.2,65.9,31.4,66.6,30.5,66.6z M21.6,63.6h7.1V51.8h-7.1C21.6,51.8,21.6,63.6,21.6,63.6z"/>
		<path fill="#F7F7F7" d="M80.1,66.6H69.5c-1,0-1.8-0.7-1.8-1.5V50.3c0-0.8,0.8-1.5,1.8-1.5h10.6c1,0,1.8,0.7,1.8,1.5v14.8
			C81.9,65.9,81.1,66.6,80.1,66.6z M71.2,63.6h7.1V51.8h-7.1V63.6z"/>
		<path fill="#F7F7F7" d="M55.3,66.6H44.7c-1,0-1.8-0.7-1.8-1.5V50.3c0-0.8,0.8-1.5,1.8-1.5h10.6c1,0,1.8,0.7,1.8,1.5v14.8
			C57.1,65.9,56.3,66.6,55.3,66.6z M46.4,63.6h7.1V51.8h-7.1V63.6z"/>
		<path fill="#F7F7F7" d="M85.4,45.8H14.5c-1,0-1.8-0.7-1.8-1.5s0.8-1.5,1.8-1.5h70.9c1,0,1.8,0.7,1.8,1.5S86.4,45.8,85.4,45.8z"/>
	</g>
</g>
</svg>
