<?xml version="1.0" encoding="utf-8"?>
<!-- Generator: Adobe Illustrator 17.1.0, SVG Export Plug-In . SVG Version: 6.00 Build 0)  -->
<!DOCTYPE svg PUBLIC "-//W3C//DTD SVG 1.1//EN" "http://www.w3.org/Graphics/SVG/1.1/DTD/svg11.dtd">
<svg version="1.1" xmlns="http://www.w3.org/2000/svg" xmlns:xlink="http://www.w3.org/1999/xlink" x="0px" y="0px"
	 viewBox="0 0 100 100" enable-background="new 0 0 100 100" xml:space="preserve">
<g id="Capa_1">
</g>
<g id="Capa_2">
	<g>
		<g>
			<polygon fill="#38A5CE" points="80.2,88.2 65,81.4 57.7,96.4 43,55.9 65.5,47.8 			"/>
			<polygon fill="#38A5CE" points="42.3,96.4 35,81.4 19.8,88.2 34.5,47.8 57,55.9 			"/>
			<polygon fill="#297E9A" points="42.3,96.4 35,81.4 45.8,51.8 57,55.9 			"/>
			<polygon fill="#297E9A" points="80.2,88.2 65,81.4 55,51.6 65.5,47.8 			"/>
		</g>
		<path fill="#65B8D1" d="M53.8,4L53.8,4c6.8-1.6,14,1.3,17.7,7.3l0,0c1.3,2.2,3.2,4,5.3,5.3v0c6,3.7,8.9,10.8,7.3,17.7l0,0
			c-0.6,2.5-0.6,5,0,7.5l0,0c1.6,6.8-1.3,14-7.3,17.7l0,0c-2.2,1.3-4,3.2-5.3,5.3l0,0c-3.7,6-10.8,8.9-17.7,7.3l0,0
			c-2.5-0.6-5-0.6-7.5,0l0,0c-6.8,1.6-14-1.3-17.7-7.3l0,0c-1.3-2.2-3.2-4-5.3-5.3l0,0c-6-3.7-8.9-10.8-7.3-17.7l0,0
			c0.6-2.5,0.6-5,0-7.5l0,0c-1.6-6.8,1.3-14,7.3-17.7v0c2.2-1.3,4-3.2,5.3-5.3l0,0c3.7-6,10.8-8.9,17.7-7.3v0
			C48.7,4.6,51.3,4.6,53.8,4z"/>
		<circle fill="#38A5CE" cx="49.8" cy="38.6" r="29.7"/>
	</g>
</g>
</svg>
