<?xml version="1.0" encoding="utf-8"?>
<!-- Generator: Adobe Illustrator 17.1.0, SVG Export Plug-In . SVG Version: 6.00 Build 0)  -->
<!DOCTYPE svg PUBLIC "-//W3C//DTD SVG 1.1//EN" "http://www.w3.org/Graphics/SVG/1.1/DTD/svg11.dtd">
<svg version="1.1" xmlns="http://www.w3.org/2000/svg" xmlns:xlink="http://www.w3.org/1999/xlink" x="0px" y="0px"
	 viewBox="0 0 100 100" enable-background="new 0 0 100 100" xml:space="preserve">
<g id="Capa_1">
</g>
<g id="Capa_2">
	<g>
		<g>
			<polygon fill="#FE544B" points="80.2,88.4 65,81.6 57.7,96.6 43,56.1 65.5,47.9 			"/>
			<polygon fill="#FE544B" points="42.3,96.6 35,81.6 19.8,88.4 34.5,47.9 57,56.1 			"/>
			<polygon fill="#BD3F33" points="42.3,96.6 35,81.6 45.8,52 57,56.1 			"/>
			<polygon fill="#BD3F33" points="80.2,88.4 65,81.6 55,51.7 65.5,47.9 			"/>
		</g>
		<path fill="#F97B78" d="M53.7,4.2L53.7,4.2c4.6-1.8,9.8-0.1,12.5,4.2v0c1.4,2.2,3.5,3.8,6,4.5l0,0c4.7,1.3,7.9,5.9,7.7,11l0,0
			c-0.1,2.6,0.7,5.3,2.3,7.3l0,0c3.1,4,3.1,9.6,0,13.6l0,0c-1.6,2.1-2.4,4.7-2.3,7.3l0,0c0.2,5.1-3,9.6-7.7,11l0,0
			c-2.5,0.7-4.6,2.3-6,4.5l0,0c-2.7,4.3-7.9,6-12.5,4.2l0,0c-2.4-0.9-5-0.9-7.4,0l0,0c-4.6,1.8-9.8,0.1-12.5-4.2l0,0
			c-1.4-2.2-3.5-3.8-6-4.5l0,0c-4.7-1.3-7.9-5.9-7.7-11l0,0c0.1-2.6-0.7-5.3-2.3-7.3l0,0c-3.1-4-3.1-9.6,0-13.6l0,0
			c1.6-2.1,2.4-4.7,2.3-7.3l0,0c-0.2-5.1,3-9.6,7.7-11l0,0c2.5-0.7,4.6-2.3,6-4.5v0c2.7-4.3,7.9-6,12.5-4.2v0
			C48.7,5.1,51.3,5.1,53.7,4.2z"/>
		<circle fill="#FE544B" cx="49.7" cy="38.3" r="29.7"/>
	</g>
</g>
</svg>
