<?xml version="1.0" encoding="utf-8"?>
<!-- Generator: Adobe Illustrator 17.1.0, SVG Export Plug-In . SVG Version: 6.00 Build 0)  -->
<!DOCTYPE svg PUBLIC "-//W3C//DTD SVG 1.1//EN" "http://www.w3.org/Graphics/SVG/1.1/DTD/svg11.dtd">
<svg version="1.1" xmlns="http://www.w3.org/2000/svg" xmlns:xlink="http://www.w3.org/1999/xlink" x="0px" y="0px"
	 viewBox="0 0 100 100" enable-background="new 0 0 100 100" xml:space="preserve">
<g id="Capa_1">
</g>
<g id="Capa_2">
	<g>
		<g>
			<polygon fill="#A6A6A6" points="80.2,88.3 65,81.6 57.7,96.5 43,56.1 65.5,47.9 			"/>
			<polygon fill="#A6A6A6" points="42.3,96.5 35,81.6 19.8,88.3 34.5,47.9 57,56.1 			"/>
			<polygon fill="#8D8D8D" points="42.3,96.5 35,81.6 45.8,52 57,56.1 			"/>
			<polygon fill="#8D8D8D" points="80.2,88.3 65,81.6 55,51.7 65.5,47.9 			"/>
		</g>
		<path fill="#C5C5C5" d="M52.5,4.5L52.5,4.5c1.7-1.7,4.5-1.2,5.6,0.9l0,0c0.9,1.7,3,2.4,4.7,1.5h0C65,5.9,67.6,7.2,68,9.5v0
			c0.3,1.9,2.1,3.2,4,2.9l0,0c2.4-0.4,4.4,1.7,4,4l0,0c-0.3,1.9,1,3.7,2.9,4l0,0c2.4,0.4,3.7,3,2.6,5.1l0,0
			c-0.9,1.7-0.2,3.8,1.5,4.7l0,0c2.1,1.1,2.6,3.9,0.9,5.6l0,0c-1.4,1.4-1.4,3.6,0,5l0,0c1.7,1.7,1.2,4.5-0.9,5.6l0,0
			c-1.7,0.9-2.4,3-1.5,4.7l0,0c1.1,2.1-0.2,4.7-2.6,5.1l0,0c-1.9,0.3-3.2,2.1-2.9,4l0,0c0.4,2.4-1.7,4.4-4,4l0,0
			c-1.9-0.3-3.7,1-4,2.9l0,0c-0.4,2.4-3,3.7-5.1,2.6h0c-1.7-0.9-3.8-0.2-4.7,1.5l0,0c-1.1,2.1-3.9,2.6-5.6,0.9l0,0
			c-1.4-1.4-3.6-1.4-5,0l0,0c-1.7,1.7-4.5,1.2-5.6-0.9l0,0c-0.9-1.7-3-2.4-4.7-1.5h0c-2.1,1.1-4.7-0.2-5.1-2.6l0,0
			c-0.3-1.9-2.1-3.2-4-2.9l0,0c-2.4,0.4-4.4-1.7-4-4l0,0c0.3-1.9-1-3.7-2.9-4l0,0c-2.4-0.4-3.7-3-2.6-5.1l0,0
			c0.9-1.7,0.2-3.8-1.5-4.7l0,0c-2.1-1.1-2.6-3.9-0.9-5.6l0,0c1.4-1.4,1.4-3.6,0-5l0,0c-1.7-1.7-1.2-4.5,0.9-5.6l0,0
			c1.7-0.9,2.4-3,1.5-4.7l0,0c-1.1-2.1,0.2-4.7,2.6-5.1l0,0c1.9-0.3,3.2-2.1,2.9-4l0,0c-0.4-2.4,1.7-4.4,4-4l0,0
			c1.9,0.3,3.7-1,4-2.9v0c0.4-2.4,3-3.7,5.1-2.6h0c1.7,0.9,3.8,0.2,4.7-1.5l0,0c1.1-2.1,3.9-2.6,5.6-0.9l0,0
			C48.9,5.9,51.1,5.9,52.5,4.5z"/>
		<circle fill="#A6A6A6" cx="50" cy="38.5" r="29.7"/>
	</g>
</g>
</svg>
