<?xml version="1.0" encoding="utf-8"?>
<!-- Generator: Adobe Illustrator 17.1.0, SVG Export Plug-In . SVG Version: 6.00 Build 0)  -->
<!DOCTYPE svg PUBLIC "-//W3C//DTD SVG 1.1//EN" "http://www.w3.org/Graphics/SVG/1.1/DTD/svg11.dtd">
<svg version="1.1" xmlns="http://www.w3.org/2000/svg" xmlns:xlink="http://www.w3.org/1999/xlink" x="0px" y="0px"
	 viewBox="0 0 100 100" enable-background="new 0 0 100 100" xml:space="preserve">
<g id="Capa_1">
</g>
<g id="Capa_2">
	<g>
		<g>
			<polygon fill="#FFC136" points="80.2,89 65,82.2 57.7,97.2 43,56.7 65.5,48.5 			"/>
			<polygon fill="#FFC136" points="42.3,97.2 35,82.2 19.8,89 34.5,48.5 57,56.7 			"/>
			<polygon fill="#BF8F23" points="42.3,97.2 35,82.2 45.8,52.6 57,56.7 			"/>
			<polygon fill="#BF8F23" points="80.2,89 65,82.2 55,52.3 65.5,48.5 			"/>
		</g>
		<path fill="#FCCF75" d="M53.9,3.3L53.9,3.3c7.1-1.7,14.6,1.4,18.4,7.6l0,0c1.4,2.3,3.3,4.2,5.6,5.6l0,0c6.2,3.9,9.3,11.3,7.6,18.4
			l0,0c-0.6,2.6-0.6,5.3,0,7.9v0c1.7,7.1-1.4,14.6-7.6,18.4l0,0c-2.3,1.4-4.2,3.3-5.6,5.6l0,0c-3.9,6.2-11.3,9.3-18.4,7.6l0,0
			c-2.6-0.6-5.3-0.6-7.9,0l0,0c-7.1,1.7-14.6-1.4-18.4-7.6h0c-1.4-2.3-3.3-4.2-5.6-5.6h0c-6.2-3.9-9.3-11.3-7.6-18.4v0
			c0.6-2.6,0.6-5.3,0-7.9l0,0c-1.7-7.1,1.4-14.6,7.6-18.4h0c2.3-1.4,4.2-3.3,5.6-5.6h0c3.9-6.2,11.3-9.3,18.4-7.6l0,0
			C48.7,3.9,51.4,3.9,53.9,3.3z"/>
		<path fill="#BF8F23" d="M52.4,7.1L52.4,7.1c1.6-1.6,4.3-1.2,5.3,0.8l0,0c0.8,1.6,2.8,2.3,4.5,1.5v0c2-1,4.4,0.2,4.8,2.4l0,0
			c0.3,1.8,2,3,3.8,2.8l0,0c2.2-0.3,4.1,1.6,3.8,3.8l0,0c-0.3,1.8,1,3.5,2.8,3.8l0,0c2.2,0.4,3.5,2.8,2.4,4.8l0,0
			c-0.8,1.6-0.2,3.6,1.5,4.5l0,0c2,1,2.4,3.7,0.8,5.3l0,0c-1.3,1.3-1.3,3.4,0,4.7l0,0c1.6,1.6,1.2,4.3-0.8,5.3l0,0
			c-1.6,0.8-2.3,2.8-1.5,4.5l0,0c1,2-0.2,4.4-2.4,4.8l0,0c-1.8,0.3-3,2-2.8,3.8l0,0c0.3,2.2-1.6,4.1-3.8,3.8l0,0
			c-1.8-0.3-3.5,1-3.8,2.8l0,0c-0.4,2.2-2.8,3.5-4.8,2.4l0,0c-1.6-0.8-3.6-0.2-4.5,1.5l0,0c-1,2-3.7,2.4-5.3,0.8l0,0
			c-1.3-1.3-3.4-1.3-4.7,0l0,0c-1.6,1.6-4.3,1.2-5.3-0.8l0,0c-0.8-1.6-2.8-2.3-4.5-1.5l0,0c-2,1-4.4-0.2-4.8-2.4l0,0
			c-0.3-1.8-2-3-3.8-2.8h0c-2.2,0.3-4.1-1.6-3.8-3.8l0,0c0.3-1.8-1-3.5-2.8-3.8h0c-2.2-0.4-3.5-2.8-2.4-4.8l0,0
			c0.8-1.6,0.2-3.6-1.5-4.5l0,0c-2-1-2.4-3.7-0.8-5.3l0,0c1.3-1.3,1.3-3.4,0-4.7l0,0c-1.6-1.6-1.2-4.3,0.8-5.3l0,0
			c1.6-0.8,2.3-2.8,1.5-4.5l0,0c-1-2,0.2-4.4,2.4-4.8h0c1.8-0.3,3-2,2.8-3.8l0,0c-0.3-2.2,1.6-4.1,3.8-3.8h0c1.8,0.3,3.5-1,3.8-2.8
			l0,0c0.4-2.2,2.8-3.5,4.8-2.4v0c1.6,0.8,3.6,0.2,4.5-1.5l0,0c1-2,3.7-2.4,5.3-0.8l0,0C49,8.3,51.1,8.3,52.4,7.1z"/>
		<circle fill="#FFC136" cx="50" cy="38.8" r="29.7"/>
	</g>
</g>
</svg>
